<svg aria-hidden="true" style="position: absolute; width: 0; height: 0; overflow: hidden;" version="1.1" xmlns="http://www.w3.org/2000/svg" xmlns:xlink="http://www.w3.org/1999/xlink">
<defs>
<symbol id="tn" viewBox="0 0 32 32">
<path fill="#fff" style="fill: var(--color1, #fff)" d="M10.993 30.118v-16.264h3.117l7.070 10.842v-10.842h3.117v16.264h-3.117l-7.070-10.842v10.842h-3.117z"></path>
<path fill="#fff" style="fill: var(--color1, #fff)" d="M4.412 23.529v-13.395h-5.128v-2.869h13.327v2.869h-5.128v13.395h-3.072z"></path>
</symbol>
<symbol id="menu" viewBox="0 0 32 32">
<path d="M2 6h28v6h-28zM2 14h28v6h-28zM2 22h28v6h-28z"></path>
</symbol>
<symbol id="mail" viewBox="0 0 39 32">
<path fill="none" stroke="#fff" style="stroke: var(--color1, #fff)" stroke-linejoin="miter" stroke-linecap="round" stroke-miterlimit="4" stroke-width="3.3684" d="M34.767 2.526h-30.797c-1.063 0-1.925 0.862-1.925 1.925v23.098c0 1.063 0.862 1.925 1.925 1.925h30.797c1.063 0 1.925-0.862 1.925-1.925v-23.098c0-1.063-0.862-1.925-1.925-1.925z"></path>
<path fill="none" stroke="#fff" style="stroke: var(--color1, #fff)" stroke-linejoin="miter" stroke-linecap="round" stroke-miterlimit="4" stroke-width="3.3684" d="M2.045 5.414l17.323 10.586 17.323-10.586"></path>
</symbol>
</defs>
</svg>
