<svg aria-hidden="true" style="position: absolute; width: 0; height: 0; overflow: hidden;" version="1.1" xmlns="http://www.w3.org/2000/svg" xmlns:xlink="http://www.w3.org/1999/xlink">
<defs>
<symbol id="tn" viewBox="0 0 32 32">
<path fill="#fff" style="fill: var(--color1, #fff)" d="M10.993 30.118v-16.264h3.117l7.070 10.842v-10.842h3.117v16.264h-3.117l-7.070-10.842v10.842h-3.117z"></path>
<path fill="#fff" style="fill: var(--color1, #fff)" d="M4.412 23.529v-13.395h-5.128v-2.869h13.327v2.869h-5.128v13.395h-3.072z"></path>
</symbol>
<symbol id="menu" viewBox="0 0 32 32">
<path d="M2 6h28v6h-28zM2 14h28v6h-28zM2 22h28v6h-28z"></path>
</symbol>
<symbol id="play" viewBox="0 0 32 32">
<path d="M11.49 6.128c-0.152-0.086-0.324-0.13-0.499-0.128s-0.346 0.049-0.496 0.137c-0.151 0.088-0.276 0.214-0.362 0.366s-0.132 0.323-0.132 0.498v18c-0 0.175 0.046 0.346 0.132 0.498s0.212 0.278 0.362 0.366 0.322 0.135 0.496 0.137c0.175 0.002 0.347-0.043 0.499-0.128l16-9c0.154-0.087 0.283-0.214 0.372-0.367s0.137-0.327 0.137-0.504c0-0.177-0.047-0.351-0.137-0.504s-0.218-0.28-0.372-0.367l-16-9.002zM8 7c0-0.524 0.137-1.038 0.398-1.492s0.636-0.832 1.088-1.096c0.452-0.264 0.965-0.406 1.489-0.41s1.039 0.128 1.496 0.385l16 9c0.464 0.261 0.85 0.641 1.119 1.1s0.411 0.982 0.411 1.515c0 0.532-0.142 1.055-0.411 1.515s-0.655 0.839-1.119 1.1l-16 9c-0.457 0.257-0.972 0.389-1.496 0.385s-1.037-0.146-1.489-0.411c-0.452-0.264-0.827-0.643-1.087-1.097s-0.397-0.969-0.397-1.493v-18z"></path>
</symbol>
<symbol id="pause" viewBox="0 0 32 32">
<path d="M11.493 28.444h-6.098c-0.488 0-0.956-0.194-1.301-0.539s-0.539-0.813-0.539-1.301v-21.209c0-0.488 0.194-0.956 0.539-1.301s0.813-0.539 1.301-0.539h6.107c0.486 0.002 0.952 0.197 1.295 0.542s0.536 0.811 0.536 1.298v21.209c0 0.488-0.194 0.956-0.539 1.301s-0.813 0.539-1.301 0.539zM11.556 5.333h-6.222v21.333h6.222v-21.333z"></path>
<path d="M26.604 28.444h-6.098c-0.488 0-0.956-0.194-1.301-0.539s-0.539-0.813-0.539-1.301v-21.209c0-0.488 0.194-0.956 0.539-1.301s0.813-0.539 1.301-0.539h6.107c0.486 0.002 0.952 0.197 1.295 0.542s0.536 0.811 0.536 1.298v21.209c0 0.488-0.194 0.956-0.539 1.301s-0.813 0.539-1.301 0.539zM26.667 5.333h-6.222v21.333h6.222v-21.333z"></path>
</symbol>
<symbol id="previous" viewBox="0 0 32 32">
<path d="M5.143 4.286c0-0.227-0.090-0.445-0.251-0.606s-0.379-0.251-0.606-0.251c-0.227 0-0.445 0.090-0.606 0.251s-0.251 0.379-0.251 0.606v23.429c0 0.227 0.090 0.445 0.251 0.606s0.379 0.251 0.606 0.251 0.445-0.090 0.606-0.251c0.161-0.161 0.251-0.379 0.251-0.606v-23.429zM28.571 6.005c0-2.075-2.333-3.296-4.038-2.112l-14.29 9.92c-0.34 0.236-0.618 0.55-0.81 0.916s-0.294 0.773-0.295 1.187 0.097 0.822 0.287 1.189c0.19 0.368 0.466 0.684 0.804 0.922l14.29 10.069c1.703 1.2 4.053-0.017 4.053-2.102v-19.99zM25.511 5.301c0.129-0.089 0.279-0.142 0.435-0.152s0.312 0.023 0.451 0.096 0.255 0.182 0.336 0.316c0.081 0.134 0.124 0.287 0.124 0.444v19.99c0 0.157-0.043 0.311-0.125 0.445s-0.198 0.243-0.338 0.316c-0.139 0.072-0.296 0.105-0.453 0.094s-0.307-0.064-0.436-0.154l-14.29-10.069c-0.113-0.079-0.205-0.185-0.268-0.307s-0.096-0.259-0.096-0.397c0-0.138 0.034-0.274 0.098-0.396s0.157-0.227 0.27-0.306l14.29-9.92z"></path>
</symbol>
<symbol id="next" viewBox="0 0 32 32">
<path d="M4 6.337c0-1.877 2.104-2.987 3.653-1.925l13.997 9.592c0.311 0.214 0.567 0.499 0.743 0.833s0.27 0.705 0.271 1.083c0.001 0.378-0.089 0.75-0.263 1.085s-0.427 0.623-0.737 0.838l-13.999 9.736c-1.545 1.076-3.665-0.033-3.665-1.916v-19.327zM6.521 6.063c-0.050-0.034-0.108-0.053-0.169-0.057s-0.12 0.010-0.174 0.038c-0.053 0.028-0.098 0.070-0.129 0.122s-0.048 0.111-0.048 0.171v19.327c0 0.269 0.301 0.427 0.523 0.273l13.997-9.735c0.045-0.031 0.081-0.072 0.106-0.12s0.038-0.101 0.038-0.155c-0-0.054-0.013-0.107-0.039-0.155s-0.062-0.089-0.106-0.119l-13.999-9.591zM28 5c0-0.265-0.105-0.52-0.293-0.707s-0.442-0.293-0.707-0.293-0.52 0.105-0.707 0.293c-0.188 0.188-0.293 0.442-0.293 0.707v22c0 0.265 0.105 0.52 0.293 0.707s0.442 0.293 0.707 0.293 0.52-0.105 0.707-0.293c0.188-0.187 0.293-0.442 0.293-0.707v-22z"></path>
</symbol>
<symbol id="mail" viewBox="0 0 39 32">
<path fill="none" stroke="#fff" style="stroke: var(--color1, #fff)" stroke-linejoin="miter" stroke-linecap="round" stroke-miterlimit="4" stroke-width="3.3684" d="M34.767 2.526h-30.797c-1.063 0-1.925 0.862-1.925 1.925v23.098c0 1.063 0.862 1.925 1.925 1.925h30.797c1.063 0 1.925-0.862 1.925-1.925v-23.098c0-1.063-0.862-1.925-1.925-1.925z"></path>
<path fill="none" stroke="#fff" style="stroke: var(--color1, #fff)" stroke-linejoin="miter" stroke-linecap="round" stroke-miterlimit="4" stroke-width="3.3684" d="M2.045 5.414l17.323 10.586 17.323-10.586"></path>
</symbol>
<symbol id="instagram" viewBox="0 0 32 32">
<path d="M16 2.881c4.275 0 4.781 0.019 6.462 0.094 1.563 0.069 2.406 0.331 2.969 0.55 0.744 0.288 1.281 0.638 1.837 1.194 0.563 0.563 0.906 1.094 1.2 1.838 0.219 0.563 0.481 1.412 0.55 2.969 0.075 1.688 0.094 2.194 0.094 6.463s-0.019 4.781-0.094 6.463c-0.069 1.563-0.331 2.406-0.55 2.969-0.288 0.744-0.637 1.281-1.194 1.837-0.563 0.563-1.094 0.906-1.837 1.2-0.563 0.219-1.413 0.481-2.969 0.55-1.688 0.075-2.194 0.094-6.463 0.094s-4.781-0.019-6.463-0.094c-1.563-0.069-2.406-0.331-2.969-0.55-0.744-0.288-1.281-0.637-1.838-1.194-0.563-0.563-0.906-1.094-1.2-1.837-0.219-0.563-0.481-1.413-0.55-2.969-0.075-1.688-0.094-2.194-0.094-6.463s0.019-4.781 0.094-6.463c0.069-1.563 0.331-2.406 0.55-2.969 0.288-0.744 0.638-1.281 1.194-1.838 0.563-0.563 1.094-0.906 1.838-1.2 0.563-0.219 1.412-0.481 2.969-0.55 1.681-0.075 2.188-0.094 6.463-0.094zM16 0c-4.344 0-4.887 0.019-6.594 0.094-1.7 0.075-2.869 0.35-3.881 0.744-1.056 0.412-1.95 0.956-2.837 1.85-0.894 0.888-1.438 1.781-1.85 2.831-0.394 1.019-0.669 2.181-0.744 3.881-0.075 1.713-0.094 2.256-0.094 6.6s0.019 4.887 0.094 6.594c0.075 1.7 0.35 2.869 0.744 3.881 0.413 1.056 0.956 1.95 1.85 2.837 0.887 0.887 1.781 1.438 2.831 1.844 1.019 0.394 2.181 0.669 3.881 0.744 1.706 0.075 2.25 0.094 6.594 0.094s4.888-0.019 6.594-0.094c1.7-0.075 2.869-0.35 3.881-0.744 1.050-0.406 1.944-0.956 2.831-1.844s1.438-1.781 1.844-2.831c0.394-1.019 0.669-2.181 0.744-3.881 0.075-1.706 0.094-2.25 0.094-6.594s-0.019-4.887-0.094-6.594c-0.075-1.7-0.35-2.869-0.744-3.881-0.394-1.063-0.938-1.956-1.831-2.844-0.887-0.887-1.781-1.438-2.831-1.844-1.019-0.394-2.181-0.669-3.881-0.744-1.712-0.081-2.256-0.1-6.6-0.1v0z"></path>
<path d="M16 7.781c-4.537 0-8.219 3.681-8.219 8.219s3.681 8.219 8.219 8.219 8.219-3.681 8.219-8.219c0-4.537-3.681-8.219-8.219-8.219zM16 21.331c-2.944 0-5.331-2.387-5.331-5.331s2.387-5.331 5.331-5.331c2.944 0 5.331 2.387 5.331 5.331s-2.387 5.331-5.331 5.331z"></path>
<path d="M26.462 7.456c0 1.060-0.859 1.919-1.919 1.919s-1.919-0.859-1.919-1.919c0-1.060 0.859-1.919 1.919-1.919s1.919 0.859 1.919 1.919z"></path>
</symbol>
<symbol id="spotify" viewBox="0 0 32 32">
<path d="M16 0c-8.8 0-16 7.2-16 16s7.2 16 16 16 16-7.2 16-16-7.119-16-16-16zM23.363 23.119c-0.319 0.481-0.881 0.637-1.363 0.319-3.762-2.319-8.481-2.8-14.081-1.519-0.563 0.163-1.037-0.238-1.2-0.719-0.162-0.563 0.237-1.038 0.719-1.2 6.081-1.363 11.363-0.8 15.519 1.762 0.563 0.238 0.644 0.875 0.406 1.356zM25.281 18.719c-0.4 0.563-1.119 0.8-1.681 0.4-4.319-2.637-10.881-3.438-15.919-1.837-0.638 0.163-1.362-0.163-1.519-0.8-0.162-0.637 0.162-1.363 0.8-1.519 5.838-1.762 13.037-0.881 18 2.163 0.475 0.238 0.719 1.038 0.319 1.594zM25.438 14.238c-5.119-3.037-13.681-3.363-18.563-1.838-0.8 0.238-1.6-0.238-1.838-0.963-0.237-0.8 0.237-1.6 0.963-1.838 5.681-1.681 15.038-1.363 20.962 2.162 0.719 0.4 0.962 1.363 0.563 2.081-0.406 0.556-1.363 0.794-2.087 0.394z"></path>
</symbol>
<symbol id="youtube" viewBox="0 0 24 28">
<path d="M14.359 20.359v-2.453c0-0.516-0.156-0.781-0.453-0.781-0.172 0-0.344 0.078-0.516 0.25v3.5c0.172 0.172 0.344 0.25 0.516 0.25 0.297 0 0.453-0.25 0.453-0.766zM17.234 18.453h1.031v-0.531c0-0.531-0.172-0.797-0.516-0.797s-0.516 0.266-0.516 0.797v0.531zM8.313 14.297v1.094h-1.25v6.609h-1.156v-6.609h-1.219v-1.094h3.625zM11.453 16.266v5.734h-1.047v-0.625c-0.406 0.469-0.797 0.703-1.188 0.703-0.328 0-0.562-0.141-0.656-0.438-0.063-0.172-0.094-0.438-0.094-0.844v-4.531h1.031v4.219c0 0.234 0 0.375 0.016 0.406 0.016 0.156 0.094 0.234 0.234 0.234 0.219 0 0.422-0.156 0.656-0.484v-4.375h1.047zM15.391 18v2.281c0 0.516-0.031 0.906-0.109 1.141-0.125 0.438-0.406 0.656-0.828 0.656-0.359 0-0.719-0.219-1.062-0.641v0.562h-1.047v-7.703h1.047v2.516c0.328-0.406 0.688-0.625 1.062-0.625 0.422 0 0.703 0.219 0.828 0.656 0.078 0.234 0.109 0.609 0.109 1.156zM19.313 20.016v0.141c0 0.344-0.016 0.562-0.031 0.672-0.031 0.234-0.109 0.438-0.234 0.625-0.281 0.422-0.719 0.625-1.25 0.625-0.547 0-0.969-0.203-1.266-0.594-0.219-0.281-0.328-0.734-0.328-1.344v-2.016c0-0.609 0.094-1.047 0.313-1.344 0.297-0.391 0.719-0.594 1.25-0.594 0.516 0 0.938 0.203 1.219 0.594 0.219 0.297 0.328 0.734 0.328 1.344v1.188h-2.078v1.016c0 0.531 0.172 0.797 0.531 0.797 0.25 0 0.406-0.141 0.469-0.406 0-0.063 0.016-0.297 0.016-0.703h1.062zM12.266 7.141v2.438c0 0.531-0.172 0.797-0.5 0.797-0.344 0-0.5-0.266-0.5-0.797v-2.438c0-0.531 0.156-0.812 0.5-0.812 0.328 0 0.5 0.281 0.5 0.812zM20.594 18.281v0c0-1.344 0-2.766-0.297-4.062-0.219-0.922-0.969-1.594-1.859-1.687-2.125-0.234-4.281-0.234-6.438-0.234-2.141 0-4.297 0-6.422 0.234-0.906 0.094-1.656 0.766-1.859 1.687-0.297 1.297-0.313 2.719-0.313 4.062v0c0 1.328 0 2.75 0.313 4.062 0.203 0.906 0.953 1.578 1.844 1.687 2.141 0.234 4.297 0.234 6.438 0.234s4.297 0 6.438-0.234c0.891-0.109 1.641-0.781 1.844-1.687 0.313-1.313 0.313-2.734 0.313-4.062zM8.797 8.109l1.406-4.625h-1.172l-0.797 3.047-0.828-3.047h-1.219c0.234 0.719 0.5 1.437 0.734 2.156 0.375 1.094 0.609 1.906 0.719 2.469v3.141h1.156v-3.141zM13.312 9.375v-2.031c0-0.609-0.109-1.062-0.328-1.359-0.297-0.391-0.703-0.594-1.219-0.594-0.531 0-0.938 0.203-1.219 0.594-0.219 0.297-0.328 0.75-0.328 1.359v2.031c0 0.609 0.109 1.062 0.328 1.359 0.281 0.391 0.688 0.594 1.219 0.594 0.516 0 0.922-0.203 1.219-0.594 0.219-0.281 0.328-0.75 0.328-1.359zM16.141 11.25h1.047v-5.781h-1.047v4.422c-0.234 0.328-0.453 0.484-0.656 0.484-0.141 0-0.234-0.078-0.25-0.25-0.016-0.031-0.016-0.156-0.016-0.406v-4.25h-1.047v4.578c0 0.406 0.031 0.672 0.094 0.859 0.109 0.281 0.344 0.422 0.672 0.422 0.391 0 0.781-0.234 1.203-0.703v0.625zM24 6.5v15c0 2.484-2.016 4.5-4.5 4.5h-15c-2.484 0-4.5-2.016-4.5-4.5v-15c0-2.484 2.016-4.5 4.5-4.5h15c2.484 0 4.5 2.016 4.5 4.5z"></path>
</symbol>
<symbol id="applemusic" viewBox="0 0 32 32">
<path d="M31.996 8.165c0-0.984-0.087-1.96-0.32-2.92-0.423-1.747-1.416-3.080-2.907-4.057-0.765-0.499-1.605-0.808-2.503-0.969-0.689-0.124-1.384-0.18-2.085-0.2-0.053-0.004-0.111-0.013-0.165-0.017h-16.032c-0.203 0.013-0.404 0.023-0.607 0.035-0.996 0.057-1.987 0.164-2.924 0.535-1.781 0.707-3.067 1.936-3.82 3.707-0.256 0.597-0.389 1.233-0.484 1.877-0.075 0.523-0.117 1.047-0.133 1.573 0 0.043-0.009 0.083-0.013 0.124v16.297c0.013 0.187 0.023 0.377 0.036 0.565 0.067 1.087 0.205 2.165 0.663 3.164 0.867 1.893 2.317 3.137 4.312 3.736 0.56 0.169 1.141 0.249 1.724 0.304 0.74 0.071 1.48 0.080 2.223 0.080h14.707c0.7 0 1.397-0.045 2.093-0.133 1.097-0.141 2.129-0.467 3.061-1.080 1.12-0.737 1.963-1.716 2.507-2.944 0.248-0.56 0.391-1.16 0.493-1.765 0.151-0.9 0.184-1.811 0.183-2.72-0.003-5.067 0-10.127-0.008-15.191zM23.432 13.485v7.616c0 0.556-0.077 1.103-0.325 1.608-0.387 0.787-1.013 1.283-1.851 1.52-0.467 0.133-0.941 0.209-1.427 0.231-1.267 0.060-2.364-0.8-2.591-2.048-0.189-1.031 0.303-2.165 1.384-2.696 0.431-0.213 0.893-0.333 1.357-0.432 0.504-0.109 1.011-0.204 1.512-0.32 0.365-0.084 0.609-0.307 0.68-0.688 0.019-0.084 0.027-0.173 0.027-0.257 0-2.42 0-4.84-0.003-7.257 0-0.083-0.013-0.167-0.035-0.247-0.053-0.2-0.2-0.324-0.405-0.312-0.213 0.013-0.424 0.047-0.633 0.088-1.013 0.2-2.027 0.404-3.040 0.608l-4.933 0.997c-0.021 0.004-0.043 0.013-0.064 0.017-0.369 0.103-0.503 0.271-0.52 0.653-0.003 0.056 0 0.115 0 0.173-0.003 3.469 0 6.939-0.004 10.407 0 0.56-0.063 1.115-0.287 1.636-0.371 0.853-1.027 1.387-1.912 1.644-0.467 0.133-0.947 0.213-1.433 0.229-1.28 0.048-2.34-0.8-2.56-2.059-0.187-1.083 0.307-2.247 1.539-2.767 0.476-0.2 0.973-0.309 1.477-0.413 0.383-0.080 0.767-0.155 1.147-0.236 0.511-0.111 0.777-0.431 0.8-0.952v-0.2c0-3.947 0-7.896 0.003-11.843 0-0.164 0.017-0.333 0.056-0.493 0.093-0.38 0.364-0.597 0.728-0.691 0.34-0.088 0.687-0.149 1.032-0.22 0.977-0.2 1.955-0.395 2.933-0.592l3.027-0.613c0.893-0.179 1.787-0.36 2.68-0.537 0.293-0.057 0.591-0.117 0.885-0.141 0.413-0.033 0.697 0.227 0.739 0.643 0.011 0.097 0.016 0.197 0.016 0.297 0.003 2.547 0.003 5.096 0.001 7.647z"></path>
</symbol>
<symbol id="reverbnation" viewBox="0 0 32 32">
<path d="M32 12.432l-12.191-0.040-3.848-11.632-3.771 11.632-12.149 0.040 9.823 7.14-3.807 11.665h0.039l9.945-7.181 9.861 7.181-3.807-11.64 9.904-7.177z"></path>
</symbol>
<symbol id="soundcloud" viewBox="0 0 32 32">
<path d="M29 0h-26c-1.65 0-3 1.35-3 3v26c0 1.65 1.35 3 3 3h26c1.65 0 3-1.35 3-3v-26c0-1.65-1.35-3-3-3zM5.5 22h-1l-0.5-3 0.5-3h1l0.5 3-0.5 3zM9.5 22h-1l-0.5-4 0.5-4h1l0.5 4-0.5 4zM13.5 22h-1l-0.5-6 0.5-6h1l0.5 6-0.5 6zM25.788 22c-0.063 0-9.413-0.006-9.419-0.006-0.2-0.019-0.363-0.194-0.369-0.4v-10.787c0-0.2 0.069-0.3 0.325-0.4 0.663-0.256 1.406-0.406 2.175-0.406 3.131 0 5.7 2.4 5.975 5.469 0.406-0.169 0.85-0.262 1.313-0.262 1.875 0 3.4 1.525 3.4 3.4s-1.525 3.394-3.4 3.394z"></path>
</symbol>
<symbol id="down" viewBox="0 0 20 32">
<path fill="#dedede" style="fill: var(--color1, #dedede)" d="M8.976 31.024c0.481 0.481 1.26 0.481 1.741 0l7.833-7.833c0.481-0.481 0.481-1.26 0-1.741s-1.26-0.481-1.741 0l-6.962 6.962-6.962-6.962c-0.481-0.481-1.26-0.481-1.741 0s-0.481 1.26 0 1.741l7.833 7.833zM8.615 0.615v29.538h2.462v-29.538h-2.462z"></path>
</symbol>
<symbol id="logo" viewBox="0 0 41 32">
<path d="M33.958 7.844c0-0.703 0.569-1.272 1.272-1.272s1.272 0.569 1.272 1.272v16.315c0 0.703-0.569 1.272-1.272 1.272s-1.272-0.569-1.272-1.272v-16.315zM0 10.704c0-0.703 0.569-1.272 1.272-1.272s1.272 0.569 1.272 1.272v10.593c0 0.703-0.569 1.272-1.272 1.272s-1.272-0.569-1.272-1.272v-10.593zM4.851 7.844c0-0.703 0.569-1.272 1.272-1.272s1.272 0.569 1.272 1.272v16.315c0 0.703-0.569 1.272-1.272 1.272s-1.272-0.569-1.272-1.272v-16.315zM9.721 4.676c0-0.7 0.562-1.265 1.251-1.265 0.693 0 1.251 0.565 1.251 1.265v22.652c0 0.7-0.562 1.265-1.251 1.265-0.693 0-1.251-0.565-1.251-1.265v-22.652zM14.552 1.272c0-0.703 0.569-1.272 1.272-1.272s1.272 0.569 1.272 1.272v29.457c0 0.703-0.569 1.272-1.272 1.272s-1.272-0.569-1.272-1.272v-29.457zM29.107 10.704c0-0.703 0.569-1.272 1.272-1.272s1.272 0.569 1.272 1.272v10.593c0 0.703-0.569 1.272-1.272 1.272s-1.272-0.569-1.272-1.272v-10.593zM24.256 7.844c0-0.703 0.569-1.272 1.272-1.272s1.272 0.569 1.272 1.272v16.315c0 0.703-0.569 1.272-1.272 1.272s-1.272-0.569-1.272-1.272v-16.315zM19.423 4.676c0-0.7 0.562-1.265 1.251-1.265 0.693 0 1.251 0.565 1.251 1.265v22.652c0 0.7-0.562 1.265-1.251 1.265-0.693 0-1.251-0.565-1.251-1.265v-22.652zM38.829 4.676c0-0.7 0.562-1.265 1.251-1.265 0.693 0 1.251 0.565 1.251 1.265v22.652c0 0.7-0.562 1.265-1.251 1.265-0.693 0-1.251-0.565-1.251-1.265v-22.652z"></path>
</symbol>
<symbol id="play" viewBox="0 0 32 32">
<path d="M30.408 13.718l-26.991-13.495c-0.364-0.169-0.765-0.244-1.165-0.218s-0.788 0.151-1.128 0.365c-0.34 0.214-0.62 0.509-0.817 0.859s-0.302 0.744-0.308 1.145v26.979c-0.003 0.412 0.1 0.818 0.299 1.178s0.488 0.664 0.839 0.88 0.751 0.338 1.163 0.354c0.412 0.016 0.82-0.074 1.187-0.262l26.921-13.495c0.399-0.2 0.734-0.507 0.968-0.887s0.358-0.817 0.358-1.263-0.124-0.884-0.358-1.263c-0.234-0.38-0.57-0.687-0.968-0.887v0.012z"></path>
</symbol>
<symbol id="pause" viewBox="0 0 32 32">
<path d="M10.199 31.754h-6.799c-1.877 0-3.4-1.524-3.4-3.402v-24.95c0-1.878 1.523-3.402 3.4-3.402h6.799c1.877 0 3.4 1.524 3.4 3.402v24.95c0 1.878-1.523 3.402-3.4 3.402zM31.729 28.352v-24.95c0-1.878-1.523-3.402-3.4-3.402h-6.799c-1.877 0-3.4 1.524-3.4 3.402v24.95c0 1.878 1.523 3.402 3.4 3.402h6.799c1.877 0 3.4-1.524 3.4-3.402z"></path>
</symbol>
</defs>
</svg>
