<svg width="13" height="13" viewBox="0 0 13 13" fill="none" xmlns="http://www.w3.org/2000/svg">
<path d="M12.3534 5.57307L1.38837 0.0905685C1.24044 0.022034 1.07773 -0.00841445 0.915031 0.00199469C0.752334 0.0124038 0.594825 0.0633401 0.456841 0.150167C0.318858 0.236993 0.204781 0.356953 0.124997 0.499125C0.0452128 0.641297 0.00225476 0.801166 3.31553e-05 0.96418V11.9245C-0.00134827 12.0918 0.04046 12.2567 0.121417 12.4031C0.202374 12.5496 0.319743 12.6727 0.462178 12.7605C0.604613 12.8483 0.767298 12.8979 0.934508 12.9045C1.10172 12.9111 1.2678 12.8744 1.4167 12.7981L12.3534 7.31557C12.5154 7.23425 12.6516 7.10948 12.7468 6.9552C12.8419 6.80093 12.8923 6.62323 12.8923 6.44196C12.8923 6.26069 12.8419 6.08299 12.7468 5.92871C12.6516 5.77444 12.5154 5.64967 12.3534 5.56835V5.57307Z" fill="black"/>
</svg>
