<svg width="13" height="13" viewBox="0 0 13 13" fill="none" xmlns="http://www.w3.org/2000/svg">
<path d="M4.14321 12.9H1.38107C0.618605 12.9 0 12.2809 0 11.5179V1.38214C0 0.619085 0.618605 0 1.38107 0H4.14321C4.90568 0 5.52429 0.619085 5.52429 1.38214V11.5179C5.52429 12.2809 4.90568 12.9 4.14321 12.9ZM12.89 11.5179V1.38214C12.89 0.619085 12.2714 0 11.5089 0H8.74679C7.98432 0 7.36571 0.619085 7.36571 1.38214V11.5179C7.36571 12.2809 7.98432 12.9 8.74679 12.9H11.5089C12.2714 12.9 12.89 12.2809 12.89 11.5179Z" fill="black"/>
</svg>
